<svg xmlns="http://www.w3.org/2000/svg" xmlns:xlink="http://www.w3.org/1999/xlink" id="Layer_1" x="0" y="0" version="1.1" viewBox="0 0 97 72" style="enable-background:new 0 0 97 72" xml:space="preserve"><style type="text/css">.st0{fill-rule:evenodd;clip-rule:evenodd;fill:url(#SVGID_1_)}.st1{opacity:.2372}.st2{fill:url(#SVGID_2_)}.st2,.st3,.st4,.st5,.st6{fill-rule:evenodd;clip-rule:evenodd}.st3{fill:url(#SVGID_3_)}.st4{fill:url(#SVGID_4_)}.st5{fill:url(#SVGID_5_)}.st6{fill:url(#SVGID_6_)}.st10,.st11,.st12,.st13{fill-rule:evenodd;clip-rule:evenodd}.st7{fill:url(#SVGID_7_)}.st7,.st8,.st9{fill-rule:evenodd;clip-rule:evenodd}.st8{fill:url(#SVGID_8_)}.st9{fill:url(#SVGID_9_)}.st10{fill:url(#SVGID_10_)}.st11{fill:url(#SVGID_11_)}.st12{fill:url(#SVGID_12_)}.st13{fill:url(#SVGID_13_)}.st14{fill:url(#SVGID_14_)}.st14,.st15,.st16,.st17,.st18,.st19{fill-rule:evenodd;clip-rule:evenodd}.st15{fill:url(#SVGID_15_)}.st16{fill:url(#SVGID_16_)}.st17{fill:url(#SVGID_17_)}.st18{fill:url(#SVGID_18_)}.st19{fill:url(#SVGID_19_)}.st20{fill:url(#SVGID_20_)}.st20,.st21,.st22,.st23,.st24,.st25{fill-rule:evenodd;clip-rule:evenodd}.st21{fill:url(#SVGID_21_)}.st22{fill:url(#SVGID_22_)}.st23{fill:url(#SVGID_23_)}.st24{fill:url(#SVGID_24_)}.st25{fill:url(#SVGID_25_)}.st26{fill:url(#SVGID_26_)}.st26,.st27,.st28,.st29,.st30,.st31{fill-rule:evenodd;clip-rule:evenodd}.st27{fill:url(#SVGID_27_)}.st28{fill:url(#SVGID_28_)}.st29{fill:url(#SVGID_29_)}.st30{fill:url(#SVGID_30_)}.st31{fill:url(#SVGID_31_)}.st32{fill:url(#SVGID_32_)}.st32,.st33,.st34,.st35,.st36,.st37{fill-rule:evenodd;clip-rule:evenodd}.st33{fill:url(#SVGID_33_)}.st34{fill:url(#SVGID_34_)}.st35{fill:url(#SVGID_35_)}.st36{fill:url(#SVGID_36_)}.st37{fill:url(#SVGID_37_)}.st38{fill:url(#SVGID_38_)}.st38,.st39,.st40,.st41,.st42,.st43{fill-rule:evenodd;clip-rule:evenodd}.st39{fill:url(#SVGID_39_)}.st40{fill:url(#SVGID_40_)}.st41{fill:url(#SVGID_41_)}.st42{fill:url(#SVGID_42_)}.st43{fill:url(#SVGID_43_)}.st44{fill:url(#SVGID_44_)}.st44,.st45,.st46,.st47,.st48,.st49{fill-rule:evenodd;clip-rule:evenodd}.st45{fill:url(#SVGID_45_)}.st46{fill:url(#SVGID_46_)}.st47{fill:url(#SVGID_47_)}.st48{fill:url(#SVGID_48_)}.st49{opacity:.59;fill:#66e6ac;enable-background:new}</style><g><g transform="translate(48.8 28)"><linearGradient id="SVGID_1_" x1="-861.775" x2="-861.775" y1="389.062" y2="388.062" gradientTransform="matrix(24 0 0 -29 20694.5996 11282.8047)" gradientUnits="userSpaceOnUse"><stop offset="0" style="stop-color:#fff"/><stop offset="1" style="stop-color:#f7fbff"/></linearGradient><path d="M0,6.7L12,0l12,6.7v15.4L12,29L0,22.1V6.7z" class="st0"/><g class="st1"><linearGradient id="SVGID_2_" x1="-861.775" x2="-861.775" y1="389.062" y2="388.062" gradientTransform="matrix(24 0 0 -29 20694.5996 11282.8047)" gradientUnits="userSpaceOnUse"><stop offset="0" style="stop-color:#d0deea"/><stop offset="1" style="stop-color:#dae1e8"/></linearGradient><path d="M0,6.7L12,0l12,6.7v15.4L12,29L0,22.1V6.7z" class="st2"/><linearGradient id="SVGID_3_" x1="-830.65" x2="-830.65" y1="377.159" y2="376.159" gradientTransform="matrix(12 0 0 -22.3274 9985.7998 8427.6826)" gradientUnits="userSpaceOnUse"><stop offset="0" style="stop-color:#bdc2c8"/><stop offset="1" style="stop-color:#dcedef"/></linearGradient><path d="M12,13.6l12-6.9v15.4L12,29V13.6z" class="st3"/><linearGradient id="SVGID_4_" x1="-830.65" x2="-830.65" y1="377.159" y2="376.159" gradientTransform="matrix(12 0 0 -22.3274 9985.7998 8427.6826)" gradientUnits="userSpaceOnUse"><stop offset="0" style="stop-color:#bdc2c8"/><stop offset="1" style="stop-color:#dcedef"/></linearGradient><path d="M12,13.6l12-6.9v15.4L12,29V13.6z" class="st4"/><linearGradient id="SVGID_5_" x1="-830.65" x2="-830.65" y1="353.882" y2="352.882" gradientTransform="matrix(12 0 0 -15.3982 9985.7998 5462.7461)" gradientUnits="userSpaceOnUse"><stop offset="0" style="stop-color:#adbbca;stop-opacity:.7027"/><stop offset="1" style="stop-color:#e4e8e9;stop-opacity:0"/></linearGradient><path d="M12,13.6l12,8.5L12,29V13.6z" class="st5"/><linearGradient id="SVGID_6_" x1="-955.15" x2="-955.15" y1="377.159" y2="376.159" gradientTransform="matrix(-12 0 0 -22.3274 -11455.7998 8427.6826)" gradientUnits="userSpaceOnUse"><stop offset="0" style="stop-color:#7692ae"/><stop offset="1" style="stop-color:#93b0ce"/></linearGradient><path d="M12,13.6L0,6.7v15.4L12,29V13.6z" class="st6"/><linearGradient id="SVGID_7_" x1="-955.15" x2="-955.15" y1="353.882" y2="352.882" gradientTransform="matrix(-12 0 0 -15.3982 -11455.7998 5462.7461)" gradientUnits="userSpaceOnUse"><stop offset="0" style="stop-color:#7692ae"/><stop offset="1" style="stop-color:#93b0ce"/></linearGradient><path d="M12,13.6L0,22.1L12,29V13.6z" class="st7"/></g></g><g transform="translate(.8 43)"><linearGradient id="SVGID_8_" x1="-717.775" x2="-717.775" y1="374.062" y2="373.062" gradientTransform="matrix(24 0 0 -29 17238.5996 10847.8047)" gradientUnits="userSpaceOnUse"><stop offset="0" style="stop-color:#fff"/><stop offset="1" style="stop-color:#f7fbff"/></linearGradient><path d="M0,6.7L12,0l12,6.7v15.4L12,29L0,22.1V6.7z" class="st8"/><g class="st1"><linearGradient id="SVGID_9_" x1="-717.775" x2="-717.775" y1="374.062" y2="373.062" gradientTransform="matrix(24 0 0 -29 17238.5996 10847.8047)" gradientUnits="userSpaceOnUse"><stop offset="0" style="stop-color:#d0deea"/><stop offset="1" style="stop-color:#dae1e8"/></linearGradient><path d="M0,6.7L12,0l12,6.7v15.4L12,29L0,22.1V6.7z" class="st9"/><linearGradient id="SVGID_10_" x1="-686.65" x2="-686.65" y1="362.159" y2="361.159" gradientTransform="matrix(12 0 0 -22.3274 8257.7998 8092.7705)" gradientUnits="userSpaceOnUse"><stop offset="0" style="stop-color:#bdc2c8"/><stop offset="1" style="stop-color:#dcedef"/></linearGradient><path d="M12,13.6l12-6.9v15.4L12,29V13.6z" class="st10"/><linearGradient id="SVGID_11_" x1="-686.65" x2="-686.65" y1="362.159" y2="361.159" gradientTransform="matrix(12 0 0 -22.3274 8257.7998 8092.7705)" gradientUnits="userSpaceOnUse"><stop offset="0" style="stop-color:#bdc2c8"/><stop offset="1" style="stop-color:#dcedef"/></linearGradient><path d="M12,13.6l12-6.9v15.4L12,29V13.6z" class="st11"/><linearGradient id="SVGID_12_" x1="-686.65" x2="-686.65" y1="338.882" y2="337.882" gradientTransform="matrix(12 0 0 -15.3982 8257.7998 5231.7729)" gradientUnits="userSpaceOnUse"><stop offset="0" style="stop-color:#adbbca;stop-opacity:.7027"/><stop offset="1" style="stop-color:#e4e8e9;stop-opacity:0"/></linearGradient><path d="M12,13.6l12,8.5L12,29V13.6z" class="st12"/><linearGradient id="SVGID_13_" x1="-811.15" x2="-811.15" y1="362.159" y2="361.159" gradientTransform="matrix(-12 0 0 -22.3274 -9727.7998 8092.7705)" gradientUnits="userSpaceOnUse"><stop offset="0" style="stop-color:#7692ae"/><stop offset="1" style="stop-color:#93b0ce"/></linearGradient><path d="M12,13.6L0,6.7v15.4L12,29V13.6z" class="st13"/><linearGradient id="SVGID_14_" x1="-811.15" x2="-811.15" y1="338.882" y2="337.882" gradientTransform="matrix(-12 0 0 -15.3982 -9727.7998 5231.7729)" gradientUnits="userSpaceOnUse"><stop offset="0" style="stop-color:#7692ae"/><stop offset="1" style="stop-color:#93b0ce"/></linearGradient><path d="M12,13.6L0,22.1L12,29V13.6z" class="st14"/></g></g><g transform="translate(25.2 28.469565)"><linearGradient id="SVGID_15_" x1="-791.485" x2="-791.485" y1="387.221" y2="386.221" gradientTransform="matrix(24.4 0 0 -28.0348 19324.4395 10855.6689)" gradientUnits="userSpaceOnUse"><stop offset="0" style="stop-color:#fff"/><stop offset="1" style="stop-color:#f7fbff"/></linearGradient><path d="M0,6.5L12.2,0l12.2,6.5v14.9L12.2,28L0,21.3V6.5z" class="st15"/><g class="st1"><linearGradient id="SVGID_16_" x1="-791.485" x2="-791.485" y1="387.221" y2="386.221" gradientTransform="matrix(24.4 0 0 -28.0348 19324.4395 10855.6689)" gradientUnits="userSpaceOnUse"><stop offset="0" style="stop-color:#d0deea"/><stop offset="1" style="stop-color:#dae1e8"/></linearGradient><path d="M0,6.5L12.2,0l12.2,6.5v14.9L12.2,28L0,21.3V6.5z" class="st16"/><linearGradient id="SVGID_17_" x1="-760.87" x2="-760.87" y1="374.909" y2="373.908" gradientTransform="matrix(12.2 0 0 -21.5843 9300.9199 8098.6025)" gradientUnits="userSpaceOnUse"><stop offset="0" style="stop-color:#bdc2c8"/><stop offset="1" style="stop-color:#dcedef"/></linearGradient><path d="M12.2,13.1l12.2-6.7v14.9L12.2,28V13.1z" class="st17"/><linearGradient id="SVGID_18_" x1="-760.87" x2="-760.87" y1="374.909" y2="373.908" gradientTransform="matrix(12.2 0 0 -21.5843 9300.9199 8098.6025)" gradientUnits="userSpaceOnUse"><stop offset="0" style="stop-color:#bdc2c8"/><stop offset="1" style="stop-color:#dcedef"/></linearGradient><path d="M12.2,13.1l12.2-6.7v14.9L12.2,28V13.1z" class="st18"/><linearGradient id="SVGID_19_" x1="-760.87" x2="-760.87" y1="350.829" y2="349.828" gradientTransform="matrix(12.2 0 0 -14.8857 9300.9199 5235.4951)" gradientUnits="userSpaceOnUse"><stop offset="0" style="stop-color:#adbbca;stop-opacity:.7027"/><stop offset="1" style="stop-color:#e4e8e9;stop-opacity:0"/></linearGradient><path d="M12.2,13.1l12.2,8.2L12.2,28V13.1z" class="st19"/><linearGradient id="SVGID_20_" x1="-883.33" x2="-883.33" y1="374.909" y2="373.909" gradientTransform="matrix(-12.2 0 0 -21.5843 -10770.5195 8098.6025)" gradientUnits="userSpaceOnUse"><stop offset="0" style="stop-color:#7692ae"/><stop offset="1" style="stop-color:#93b0ce"/></linearGradient><path d="M12.2,13.1L0,6.5v14.9L12.2,28V13.1z" class="st20"/><linearGradient id="SVGID_21_" x1="-883.33" x2="-883.33" y1="350.829" y2="349.828" gradientTransform="matrix(-12.2 0 0 -14.8857 -10770.5195 5235.4951)" gradientUnits="userSpaceOnUse"><stop offset="0" style="stop-color:#7692ae"/><stop offset="1" style="stop-color:#93b0ce"/></linearGradient><path d="M12.2,13.1L0,21.3L12.2,28V13.1z" class="st21"/></g></g><g transform="translate(37.4 34.93913)"><linearGradient id="SVGID_22_" x1="-828.085" x2="-828.085" y1="380.752" y2="379.752" gradientTransform="matrix(24.4 0 0 -28.0348 20217.4805 10674.2959)" gradientUnits="userSpaceOnUse"><stop offset="0" style="stop-color:#fff"/><stop offset="1" style="stop-color:#f7fbff"/></linearGradient><path d="M0,6.5L12.2,0l12.2,6.5v14.9L12.2,28L0,21.3V6.5z" class="st22"/><g class="st1"><linearGradient id="SVGID_23_" x1="-828.085" x2="-828.085" y1="380.752" y2="379.752" gradientTransform="matrix(24.4 0 0 -28.0348 20217.4805 10674.2959)" gradientUnits="userSpaceOnUse"><stop offset="0" style="stop-color:#d0deea"/><stop offset="1" style="stop-color:#dae1e8"/></linearGradient><path d="M0,6.5L12.2,0l12.2,6.5v14.9L12.2,28L0,21.3V6.5z" class="st23"/><linearGradient id="SVGID_24_" x1="-797.471" x2="-797.471" y1="368.44" y2="367.439" gradientTransform="matrix(12.2 0 0 -21.5843 9747.4395 7958.9619)" gradientUnits="userSpaceOnUse"><stop offset="0" style="stop-color:#bdc2c8"/><stop offset="1" style="stop-color:#dcedef"/></linearGradient><path d="M12.2,13.1l12.2-6.7v14.9L12.2,28V13.1z" class="st24"/><linearGradient id="SVGID_25_" x1="-797.471" x2="-797.471" y1="368.44" y2="367.439" gradientTransform="matrix(12.2 0 0 -21.5843 9747.4395 7958.9619)" gradientUnits="userSpaceOnUse"><stop offset="0" style="stop-color:#bdc2c8"/><stop offset="1" style="stop-color:#dcedef"/></linearGradient><path d="M12.2,13.1l12.2-6.7v14.9L12.2,28V13.1z" class="st25"/><linearGradient id="SVGID_26_" x1="-797.471" x2="-797.471" y1="344.36" y2="343.359" gradientTransform="matrix(12.2 0 0 -14.8857 9747.4395 5139.1914)" gradientUnits="userSpaceOnUse"><stop offset="0" style="stop-color:#adbbca;stop-opacity:.7027"/><stop offset="1" style="stop-color:#e4e8e9;stop-opacity:0"/></linearGradient><path d="M12.2,13.1l12.2,8.2L12.2,28V13.1z" class="st26"/><linearGradient id="SVGID_27_" x1="-919.929" x2="-919.929" y1="368.44" y2="367.44" gradientTransform="matrix(-12.2 0 0 -21.5843 -11217.04 7958.9619)" gradientUnits="userSpaceOnUse"><stop offset="0" style="stop-color:#7692ae"/><stop offset="1" style="stop-color:#93b0ce"/></linearGradient><path d="M12.2,13.1L0,6.5v14.9L12.2,28V13.1z" class="st27"/><linearGradient id="SVGID_28_" x1="-919.929" x2="-919.929" y1="344.36" y2="343.359" gradientTransform="matrix(-12.2 0 0 -14.8857 -11217.04 5139.1914)" gradientUnits="userSpaceOnUse"><stop offset="0" style="stop-color:#7692ae"/><stop offset="1" style="stop-color:#93b0ce"/></linearGradient><path d="M12.2,13.1L0,21.3L12.2,28V13.1z" class="st28"/></g></g><g transform="translate(24.8)"><linearGradient id="SVGID_29_" x1="-789.775" x2="-789.775" y1="417.062" y2="416.062" gradientTransform="matrix(24 0 0 -29 18966.5996 12094.8047)" gradientUnits="userSpaceOnUse"><stop offset="0" style="stop-color:#fff"/><stop offset="1" style="stop-color:#f7fbff"/></linearGradient><path d="M0,6.7L12,0l12,6.7v15.4L12,29L0,22.1V6.7z" class="st29"/><g class="st1"><linearGradient id="SVGID_30_" x1="-789.775" x2="-789.775" y1="417.062" y2="416.062" gradientTransform="matrix(24 0 0 -29 18966.5996 12094.8047)" gradientUnits="userSpaceOnUse"><stop offset="0" style="stop-color:#d0deea"/><stop offset="1" style="stop-color:#dae1e8"/></linearGradient><path d="M0,6.7L12,0l12,6.7v15.4L12,29L0,22.1V6.7z" class="st30"/><linearGradient id="SVGID_31_" x1="-758.65" x2="-758.65" y1="405.159" y2="404.159" gradientTransform="matrix(12 0 0 -22.3274 9121.7998 9052.8506)" gradientUnits="userSpaceOnUse"><stop offset="0" style="stop-color:#bdc2c8"/><stop offset="1" style="stop-color:#dcedef"/></linearGradient><path d="M12,13.6l12-6.9v15.4L12,29V13.6z" class="st31"/><linearGradient id="SVGID_32_" x1="-758.65" x2="-758.65" y1="405.159" y2="404.159" gradientTransform="matrix(12 0 0 -22.3274 9121.7998 9052.8506)" gradientUnits="userSpaceOnUse"><stop offset="0" style="stop-color:#bdc2c8"/><stop offset="1" style="stop-color:#dcedef"/></linearGradient><path d="M12,13.6l12-6.9v15.4L12,29V13.6z" class="st32"/><linearGradient id="SVGID_33_" x1="-758.65" x2="-758.65" y1="381.882" y2="380.882" gradientTransform="matrix(12 0 0 -15.3982 9121.7998 5893.897)" gradientUnits="userSpaceOnUse"><stop offset="0" style="stop-color:#adbbca;stop-opacity:.7027"/><stop offset="1" style="stop-color:#e4e8e9;stop-opacity:0"/></linearGradient><path d="M12,13.6l12,8.5L12,29V13.6z" class="st33"/><linearGradient id="SVGID_34_" x1="-883.15" x2="-883.15" y1="405.159" y2="404.159" gradientTransform="matrix(-12 0 0 -22.3274 -10591.7998 9052.8506)" gradientUnits="userSpaceOnUse"><stop offset="0" style="stop-color:#7692ae"/><stop offset="1" style="stop-color:#93b0ce"/></linearGradient><path d="M12,13.6L0,6.7v15.4L12,29V13.6z" class="st34"/><linearGradient id="SVGID_35_" x1="-883.15" x2="-883.15" y1="381.882" y2="380.882" gradientTransform="matrix(-12 0 0 -15.3982 -10591.7998 5893.897)" gradientUnits="userSpaceOnUse"><stop offset="0" style="stop-color:#7692ae"/><stop offset="1" style="stop-color:#93b0ce"/></linearGradient><path d="M12,13.6L0,22.1L12,29V13.6z" class="st35"/></g></g><g transform="translate(13.8 6)"><linearGradient id="SVGID_36_" x1="-756.775" x2="-756.775" y1="411.062" y2="410.062" gradientTransform="matrix(24 0 0 -29 18174.5996 11920.8047)" gradientUnits="userSpaceOnUse"><stop offset="0" style="stop-color:#fff"/><stop offset="1" style="stop-color:#f7fbff"/></linearGradient><path d="M0,6.7L12,0l12,6.7v15.4L12,29L0,22.1V6.7z" class="st36"/><g class="st1"><linearGradient id="SVGID_37_" x1="-756.775" x2="-756.775" y1="411.062" y2="410.062" gradientTransform="matrix(24 0 0 -29 18174.5996 11920.8047)" gradientUnits="userSpaceOnUse"><stop offset="0" style="stop-color:#d0deea"/><stop offset="1" style="stop-color:#dae1e8"/></linearGradient><path d="M0,6.7L12,0l12,6.7v15.4L12,29L0,22.1V6.7z" class="st37"/><linearGradient id="SVGID_38_" x1="-725.65" x2="-725.65" y1="399.159" y2="398.159" gradientTransform="matrix(12 0 0 -22.3274 8725.7998 8918.8857)" gradientUnits="userSpaceOnUse"><stop offset="0" style="stop-color:#bdc2c8"/><stop offset="1" style="stop-color:#dcedef"/></linearGradient><path d="M12,13.6l12-6.9v15.4L12,29V13.6z" class="st38"/><linearGradient id="SVGID_39_" x1="-725.65" x2="-725.65" y1="399.159" y2="398.159" gradientTransform="matrix(12 0 0 -22.3274 8725.7998 8918.8857)" gradientUnits="userSpaceOnUse"><stop offset="0" style="stop-color:#bdc2c8"/><stop offset="1" style="stop-color:#dcedef"/></linearGradient><path d="M12,13.6l12-6.9v15.4L12,29V13.6z" class="st39"/><linearGradient id="SVGID_40_" x1="-725.65" x2="-725.65" y1="375.882" y2="374.882" gradientTransform="matrix(12 0 0 -15.3982 8725.7998 5801.5073)" gradientUnits="userSpaceOnUse"><stop offset="0" style="stop-color:#adbbca;stop-opacity:.7027"/><stop offset="1" style="stop-color:#e4e8e9;stop-opacity:0"/></linearGradient><path d="M12,13.6l12,8.5L12,29V13.6z" class="st40"/><linearGradient id="SVGID_41_" x1="-850.15" x2="-850.15" y1="399.159" y2="398.159" gradientTransform="matrix(-12 0 0 -22.3274 -10195.7998 8918.8857)" gradientUnits="userSpaceOnUse"><stop offset="0" style="stop-color:#7692ae"/><stop offset="1" style="stop-color:#93b0ce"/></linearGradient><path d="M12,13.6L0,6.7v15.4L12,29V13.6z" class="st41"/><linearGradient id="SVGID_42_" x1="-850.15" x2="-850.15" y1="375.882" y2="374.882" gradientTransform="matrix(-12 0 0 -15.3982 -10195.7998 5801.5073)" gradientUnits="userSpaceOnUse"><stop offset="0" style="stop-color:#7692ae"/><stop offset="1" style="stop-color:#93b0ce"/></linearGradient><path d="M12,13.6L0,22.1L12,29V13.6z" class="st42"/></g></g><g><g class="st1" transform="translate(73 43)"><linearGradient id="SVGID_43_" x1="-934.375" x2="-934.375" y1="374.062" y2="373.062" gradientTransform="matrix(24 0 0 -29 22437 10847.8047)" gradientUnits="userSpaceOnUse"><stop offset="0" style="stop-color:#d0deea"/><stop offset="1" style="stop-color:#dae1e8"/></linearGradient><path d="M0,6.7L12,0l12,6.7v15.4L12,29L0,22.1V6.7z" class="st43"/><linearGradient id="SVGID_44_" x1="-903.25" x2="-903.25" y1="362.159" y2="361.159" gradientTransform="matrix(12 0 0 -22.3274 10857 8092.7705)" gradientUnits="userSpaceOnUse"><stop offset="0" style="stop-color:#bdc2c8"/><stop offset="1" style="stop-color:#dcedef"/></linearGradient><path d="M12,13.6l12-6.9v15.4L12,29V13.6z" class="st44"/><linearGradient id="SVGID_45_" x1="-903.25" x2="-903.25" y1="362.159" y2="361.159" gradientTransform="matrix(12 0 0 -22.3274 10857 8092.7705)" gradientUnits="userSpaceOnUse"><stop offset="0" style="stop-color:#bdc2c8"/><stop offset="1" style="stop-color:#dcedef"/></linearGradient><path d="M12,13.6l12-6.9v15.4L12,29V13.6z" class="st45"/><linearGradient id="SVGID_46_" x1="-903.25" x2="-903.25" y1="338.882" y2="337.882" gradientTransform="matrix(12 0 0 -15.3982 10857 5231.7729)" gradientUnits="userSpaceOnUse"><stop offset="0" style="stop-color:#adbbca;stop-opacity:.7027"/><stop offset="1" style="stop-color:#e4e8e9;stop-opacity:0"/></linearGradient><path d="M12,13.6l12,8.5L12,29V13.6z" class="st46"/><linearGradient id="SVGID_47_" x1="-1027.75" x2="-1027.75" y1="362.159" y2="361.159" gradientTransform="matrix(-12 0 0 -22.3274 -12327 8092.7705)" gradientUnits="userSpaceOnUse"><stop offset="0" style="stop-color:#7692ae"/><stop offset="1" style="stop-color:#93b0ce"/></linearGradient><path d="M12,13.6L0,6.7v15.4L12,29V13.6z" class="st47"/><linearGradient id="SVGID_48_" x1="-1027.75" x2="-1027.75" y1="338.882" y2="337.882" gradientTransform="matrix(-12 0 0 -15.3982 -12327 5231.7729)" gradientUnits="userSpaceOnUse"><stop offset="0" style="stop-color:#7692ae"/><stop offset="1" style="stop-color:#93b0ce"/></linearGradient><path d="M12,13.6L0,22.1L12,29V13.6z" class="st48"/></g><path d="M0,6.7L12,0l12,6.7v15.4L12,29L0,22.1V6.7z" class="st49" transform="translate(73 43)"/></g></g></svg>