<svg xmlns="http://www.w3.org/2000/svg" xmlns:xlink="http://www.w3.org/1999/xlink" id="Layer_1" x="0" y="0" version="1.1" viewBox="0 0 73 58" style="enable-background:new 0 0 73 58" xml:space="preserve"><style type="text/css">.st0{fill-rule:evenodd;clip-rule:evenodd;fill:url(#SVGID_1_)}.st1{opacity:.2372}.st2{fill:url(#SVGID_2_)}.st2,.st3,.st4,.st5{fill-rule:evenodd;clip-rule:evenodd}.st3{fill:url(#SVGID_3_)}.st4{fill:url(#SVGID_4_)}.st5{fill:url(#SVGID_5_)}.st10,.st11,.st12{fill-rule:evenodd;clip-rule:evenodd}.st6{fill:url(#SVGID_6_)}.st6,.st7,.st8,.st9{fill-rule:evenodd;clip-rule:evenodd}.st7{fill:url(#SVGID_7_)}.st8{fill:url(#SVGID_8_)}.st9{fill:url(#SVGID_9_)}.st10{fill:url(#SVGID_10_)}.st11{fill:url(#SVGID_11_)}.st12{fill:url(#SVGID_12_)}.st13{fill:url(#SVGID_13_)}.st13,.st14,.st15,.st16,.st17,.st18{fill-rule:evenodd;clip-rule:evenodd}.st14{fill:url(#SVGID_14_)}.st15{fill:url(#SVGID_15_)}.st16{fill:url(#SVGID_16_)}.st17{fill:url(#SVGID_17_)}.st18{fill:url(#SVGID_18_)}.st19{fill:url(#SVGID_19_)}.st19,.st20,.st21,.st22,.st23,.st24{fill-rule:evenodd;clip-rule:evenodd}.st20{fill:url(#SVGID_20_)}.st21{fill:url(#SVGID_21_)}.st22{fill:url(#SVGID_22_)}.st23{fill:url(#SVGID_23_)}.st24{fill:url(#SVGID_24_)}.st25{fill:url(#SVGID_25_)}.st25,.st26,.st27,.st28,.st29,.st30{fill-rule:evenodd;clip-rule:evenodd}.st26{fill:url(#SVGID_26_)}.st27{fill:url(#SVGID_27_)}.st28{fill:url(#SVGID_28_)}.st29{fill:url(#SVGID_29_)}.st30{fill:url(#SVGID_30_)}.st31{fill:url(#SVGID_31_)}.st31,.st32,.st33,.st34,.st35,.st36{fill-rule:evenodd;clip-rule:evenodd}.st32{fill:url(#SVGID_32_)}.st33{fill:url(#SVGID_33_)}.st34{fill:url(#SVGID_34_)}.st35{fill:url(#SVGID_35_)}.st36{fill:url(#SVGID_36_)}.st37{fill:url(#SVGID_37_)}.st37,.st38,.st39,.st40,.st41,.st42{fill-rule:evenodd;clip-rule:evenodd}.st38{fill:url(#SVGID_38_)}.st39{fill:url(#SVGID_39_)}.st40{fill:url(#SVGID_40_)}.st41{fill:url(#SVGID_41_)}.st42{opacity:.61;fill:#66e6ac;enable-background:new}</style><g><g transform="translate(24.8 15)"><linearGradient id="SVGID_1_" x1="-824.275" x2="-824.275" y1="394.338" y2="393.338" gradientTransform="matrix(24 0 0 -29 19794.5996 11435.8047)" gradientUnits="userSpaceOnUse"><stop offset="0" style="stop-color:#fff"/><stop offset="1" style="stop-color:#f7fbff"/></linearGradient><path d="M0,6.7L12,0l12,6.7v15.4L12,29L0,22.1V6.7z" class="st0"/><g class="st1"><linearGradient id="SVGID_2_" x1="-824.275" x2="-824.275" y1="394.338" y2="393.338" gradientTransform="matrix(24 0 0 -29 19794.5996 11435.8047)" gradientUnits="userSpaceOnUse"><stop offset="0" style="stop-color:#d0deea"/><stop offset="1" style="stop-color:#dae1e8"/></linearGradient><path d="M0,6.7L12,0l12,6.7v15.4L12,29L0,22.1V6.7z" class="st2"/><linearGradient id="SVGID_3_" x1="-791.65" x2="-791.65" y1="382.219" y2="381.219" gradientTransform="matrix(12 0 0 -22.3274 9517.7998 8540.6465)" gradientUnits="userSpaceOnUse"><stop offset="0" style="stop-color:#bdc2c8"/><stop offset="1" style="stop-color:#dcedef"/></linearGradient><path d="M12,13.6l12-6.9v15.4L12,29V13.6z" class="st3"/><linearGradient id="SVGID_4_" x1="-791.65" x2="-791.65" y1="382.219" y2="381.219" gradientTransform="matrix(12 0 0 -22.3274 9517.7998 8540.6465)" gradientUnits="userSpaceOnUse"><stop offset="0" style="stop-color:#bdc2c8"/><stop offset="1" style="stop-color:#dcedef"/></linearGradient><path d="M12,13.6l12-6.9v15.4L12,29V13.6z" class="st4"/><linearGradient id="SVGID_5_" x1="-791.65" x2="-791.65" y1="358.518" y2="357.518" gradientTransform="matrix(12 0 0 -15.3982 9517.7998 5534.1357)" gradientUnits="userSpaceOnUse"><stop offset="0" style="stop-color:#adbbca;stop-opacity:.7027"/><stop offset="1" style="stop-color:#e4e8e9;stop-opacity:0"/></linearGradient><path d="M12,13.6l12,8.5L12,29V13.6z" class="st5"/><linearGradient id="SVGID_6_" x1="-922.15" x2="-922.15" y1="382.219" y2="381.219" gradientTransform="matrix(-12 0 0 -22.3274 -11059.7998 8540.6465)" gradientUnits="userSpaceOnUse"><stop offset="0" style="stop-color:#7692ae"/><stop offset="1" style="stop-color:#93b0ce"/></linearGradient><path d="M12,13.6L0,6.7v15.4L12,29V13.6z" class="st6"/><linearGradient id="SVGID_7_" x1="-922.15" x2="-922.15" y1="358.518" y2="357.518" gradientTransform="matrix(-12 0 0 -15.3982 -11059.7998 5534.1357)" gradientUnits="userSpaceOnUse"><stop offset="0" style="stop-color:#7692ae"/><stop offset="1" style="stop-color:#93b0ce"/></linearGradient><path d="M12,13.6L0,22.1L12,29V13.6z" class="st7"/></g></g><g transform="translate(12.2 23.469565)"><linearGradient id="SVGID_8_" x1="-787.01" x2="-787.01" y1="384.472" y2="383.472" gradientTransform="matrix(24.4 0 0 -28.0348 19215.2402 10778.5996)" gradientUnits="userSpaceOnUse"><stop offset="0" style="stop-color:#fff"/><stop offset="1" style="stop-color:#f7fbff"/></linearGradient><path d="M0,6.5L12.2,0l12.2,6.5v14.9L12.2,28L0,21.3V6.5z" class="st8"/><g class="st1"><linearGradient id="SVGID_9_" x1="-787.01" x2="-787.01" y1="384.472" y2="383.472" gradientTransform="matrix(24.4 0 0 -28.0348 19215.2402 10778.5996)" gradientUnits="userSpaceOnUse"><stop offset="0" style="stop-color:#d0deea"/><stop offset="1" style="stop-color:#dae1e8"/></linearGradient><path d="M0,6.5L12.2,0l12.2,6.5v14.9L12.2,28L0,21.3V6.5z" class="st9"/><linearGradient id="SVGID_10_" x1="-754.92" x2="-754.92" y1="371.936" y2="370.935" gradientTransform="matrix(12.2 0 0 -21.5843 9228.3193 8034.4336)" gradientUnits="userSpaceOnUse"><stop offset="0" style="stop-color:#bdc2c8"/><stop offset="1" style="stop-color:#dcedef"/></linearGradient><path d="M12.2,13.1l12.2-6.7v14.9L12.2,28V13.1z" class="st10"/><linearGradient id="SVGID_11_" x1="-754.92" x2="-754.92" y1="371.936" y2="370.935" gradientTransform="matrix(12.2 0 0 -21.5843 9228.3193 8034.4336)" gradientUnits="userSpaceOnUse"><stop offset="0" style="stop-color:#bdc2c8"/><stop offset="1" style="stop-color:#dcedef"/></linearGradient><path d="M12.2,13.1l12.2-6.7v14.9L12.2,28V13.1z" class="st11"/><linearGradient id="SVGID_12_" x1="-754.92" x2="-754.92" y1="347.418" y2="346.417" gradientTransform="matrix(12.2 0 0 -14.8857 9228.3193 5184.7241)" gradientUnits="userSpaceOnUse"><stop offset="0" style="stop-color:#adbbca;stop-opacity:.7027"/><stop offset="1" style="stop-color:#e4e8e9;stop-opacity:0"/></linearGradient><path d="M12.2,13.1l12.2,8.2L12.2,28V13.1z" class="st12"/><linearGradient id="SVGID_13_" x1="-883.28" x2="-883.28" y1="371.936" y2="370.936" gradientTransform="matrix(-12.2 0 0 -21.5843 -10769.9199 8034.4336)" gradientUnits="userSpaceOnUse"><stop offset="0" style="stop-color:#7692ae"/><stop offset="1" style="stop-color:#93b0ce"/></linearGradient><path d="M12.2,13.1L0,6.5v14.9L12.2,28V13.1z" class="st13"/><linearGradient id="SVGID_14_" x1="-883.28" x2="-883.28" y1="347.418" y2="346.417" gradientTransform="matrix(-12.2 0 0 -14.8857 -10769.9199 5184.7241)" gradientUnits="userSpaceOnUse"><stop offset="0" style="stop-color:#7692ae"/><stop offset="1" style="stop-color:#93b0ce"/></linearGradient><path d="M12.2,13.1L0,21.3L12.2,28V13.1z" class="st14"/></g></g><g transform="translate(24.4 29.93913)"><linearGradient id="SVGID_15_" x1="-823.61" x2="-823.61" y1="378.003" y2="377.003" gradientTransform="matrix(24.4 0 0 -28.0348 20108.2793 10597.2266)" gradientUnits="userSpaceOnUse"><stop offset="0" style="stop-color:#fff"/><stop offset="1" style="stop-color:#f7fbff"/></linearGradient><path d="M0,6.5L12.2,0l12.2,6.5v14.9L12.2,28L0,21.3V6.5z" class="st15"/><g class="st1"><linearGradient id="SVGID_16_" x1="-823.61" x2="-823.61" y1="378.003" y2="377.003" gradientTransform="matrix(24.4 0 0 -28.0348 20108.2793 10597.2266)" gradientUnits="userSpaceOnUse"><stop offset="0" style="stop-color:#d0deea"/><stop offset="1" style="stop-color:#dae1e8"/></linearGradient><path d="M0,6.5L12.2,0l12.2,6.5v14.9L12.2,28L0,21.3V6.5z" class="st16"/><linearGradient id="SVGID_17_" x1="-791.52" x2="-791.52" y1="365.467" y2="364.466" gradientTransform="matrix(12.2 0 0 -21.5843 9674.8398 7894.793)" gradientUnits="userSpaceOnUse"><stop offset="0" style="stop-color:#bdc2c8"/><stop offset="1" style="stop-color:#dcedef"/></linearGradient><path d="M12.2,13.1l12.2-6.7v14.9L12.2,28V13.1z" class="st17"/><linearGradient id="SVGID_18_" x1="-791.52" x2="-791.52" y1="365.467" y2="364.466" gradientTransform="matrix(12.2 0 0 -21.5843 9674.8398 7894.793)" gradientUnits="userSpaceOnUse"><stop offset="0" style="stop-color:#bdc2c8"/><stop offset="1" style="stop-color:#dcedef"/></linearGradient><path d="M12.2,13.1l12.2-6.7v14.9L12.2,28V13.1z" class="st18"/><linearGradient id="SVGID_19_" x1="-791.52" x2="-791.52" y1="340.949" y2="339.948" gradientTransform="matrix(12.2 0 0 -14.8857 9674.8398 5088.4199)" gradientUnits="userSpaceOnUse"><stop offset="0" style="stop-color:#adbbca;stop-opacity:.7027"/><stop offset="1" style="stop-color:#e4e8e9;stop-opacity:0"/></linearGradient><path d="M12.2,13.1l12.2,8.2L12.2,28V13.1z" class="st19"/><linearGradient id="SVGID_20_" x1="-919.88" x2="-919.88" y1="365.467" y2="364.467" gradientTransform="matrix(-12.2 0 0 -21.5843 -11216.4404 7894.793)" gradientUnits="userSpaceOnUse"><stop offset="0" style="stop-color:#7692ae"/><stop offset="1" style="stop-color:#93b0ce"/></linearGradient><path d="M12.2,13.1L0,6.5v14.9L12.2,28V13.1z" class="st20"/><linearGradient id="SVGID_21_" x1="-919.88" x2="-919.88" y1="340.949" y2="339.948" gradientTransform="matrix(-12.2 0 0 -14.8857 -11216.4404 5088.4199)" gradientUnits="userSpaceOnUse"><stop offset="0" style="stop-color:#7692ae"/><stop offset="1" style="stop-color:#93b0ce"/></linearGradient><path d="M12.2,13.1L0,21.3L12.2,28V13.1z" class="st21"/></g></g><g transform="translate(0 29.93913)"><linearGradient id="SVGID_22_" x1="-750.41" x2="-750.41" y1="378.003" y2="377.003" gradientTransform="matrix(24.4 0 0 -28.0348 18322.1992 10597.2266)" gradientUnits="userSpaceOnUse"><stop offset="0" style="stop-color:#fff"/><stop offset="1" style="stop-color:#f7fbff"/></linearGradient><path d="M0,6.5L12.2,0l12.2,6.5v14.9L12.2,28L0,21.3V6.5z" class="st22"/><g class="st1"><linearGradient id="SVGID_23_" x1="-750.41" x2="-750.41" y1="378.003" y2="377.003" gradientTransform="matrix(24.4 0 0 -28.0348 18322.1992 10597.2266)" gradientUnits="userSpaceOnUse"><stop offset="0" style="stop-color:#d0deea"/><stop offset="1" style="stop-color:#dae1e8"/></linearGradient><path d="M0,6.5L12.2,0l12.2,6.5v14.9L12.2,28L0,21.3V6.5z" class="st23"/><linearGradient id="SVGID_24_" x1="-718.32" x2="-718.32" y1="365.467" y2="364.466" gradientTransform="matrix(12.2 0 0 -21.5843 8781.7998 7894.793)" gradientUnits="userSpaceOnUse"><stop offset="0" style="stop-color:#bdc2c8"/><stop offset="1" style="stop-color:#dcedef"/></linearGradient><path d="M12.2,13.1l12.2-6.7v14.9L12.2,28V13.1z" class="st24"/><linearGradient id="SVGID_25_" x1="-718.32" x2="-718.32" y1="365.467" y2="364.466" gradientTransform="matrix(12.2 0 0 -21.5843 8781.7998 7894.793)" gradientUnits="userSpaceOnUse"><stop offset="0" style="stop-color:#bdc2c8"/><stop offset="1" style="stop-color:#dcedef"/></linearGradient><path d="M12.2,13.1l12.2-6.7v14.9L12.2,28V13.1z" class="st25"/><linearGradient id="SVGID_26_" x1="-718.32" x2="-718.32" y1="340.949" y2="339.948" gradientTransform="matrix(12.2 0 0 -14.8857 8781.7998 5088.4199)" gradientUnits="userSpaceOnUse"><stop offset="0" style="stop-color:#adbbca;stop-opacity:.7027"/><stop offset="1" style="stop-color:#e4e8e9;stop-opacity:0"/></linearGradient><path d="M12.2,13.1l12.2,8.2L12.2,28V13.1z" class="st26"/><linearGradient id="SVGID_27_" x1="-846.68" x2="-846.68" y1="365.467" y2="364.467" gradientTransform="matrix(-12.2 0 0 -21.5843 -10323.3994 7894.793)" gradientUnits="userSpaceOnUse"><stop offset="0" style="stop-color:#7692ae"/><stop offset="1" style="stop-color:#93b0ce"/></linearGradient><path d="M12.2,13.1L0,6.5v14.9L12.2,28V13.1z" class="st27"/><linearGradient id="SVGID_28_" x1="-846.68" x2="-846.68" y1="340.949" y2="339.948" gradientTransform="matrix(-12.2 0 0 -14.8857 -10323.3994 5088.4199)" gradientUnits="userSpaceOnUse"><stop offset="0" style="stop-color:#7692ae"/><stop offset="1" style="stop-color:#93b0ce"/></linearGradient><path d="M12.2,13.1L0,21.3L12.2,28V13.1z" class="st28"/></g></g><g transform="translate(12.8 8)"><linearGradient id="SVGID_29_" x1="-788.275" x2="-788.275" y1="401.338" y2="400.338" gradientTransform="matrix(24 0 0 -29 18930.5996 11638.8047)" gradientUnits="userSpaceOnUse"><stop offset="0" style="stop-color:#fff"/><stop offset="1" style="stop-color:#f7fbff"/></linearGradient><path d="M0,6.7L12,0l12,6.7v15.4L12,29L0,22.1V6.7z" class="st29"/><g class="st1"><linearGradient id="SVGID_30_" x1="-788.275" x2="-788.275" y1="401.338" y2="400.338" gradientTransform="matrix(24 0 0 -29 18930.5996 11638.8047)" gradientUnits="userSpaceOnUse"><stop offset="0" style="stop-color:#d0deea"/><stop offset="1" style="stop-color:#dae1e8"/></linearGradient><path d="M0,6.7L12,0l12,6.7v15.4L12,29L0,22.1V6.7z" class="st30"/><linearGradient id="SVGID_31_" x1="-755.65" x2="-755.65" y1="389.219" y2="388.219" gradientTransform="matrix(12 0 0 -22.3274 9085.7998 8696.9385)" gradientUnits="userSpaceOnUse"><stop offset="0" style="stop-color:#bdc2c8"/><stop offset="1" style="stop-color:#dcedef"/></linearGradient><path d="M12,13.6l12-6.9v15.4L12,29V13.6z" class="st31"/><linearGradient id="SVGID_32_" x1="-755.65" x2="-755.65" y1="389.219" y2="388.219" gradientTransform="matrix(12 0 0 -22.3274 9085.7998 8696.9385)" gradientUnits="userSpaceOnUse"><stop offset="0" style="stop-color:#bdc2c8"/><stop offset="1" style="stop-color:#dcedef"/></linearGradient><path d="M12,13.6l12-6.9v15.4L12,29V13.6z" class="st32"/><linearGradient id="SVGID_33_" x1="-755.65" x2="-755.65" y1="365.518" y2="364.518" gradientTransform="matrix(12 0 0 -15.3982 9085.7998 5641.9233)" gradientUnits="userSpaceOnUse"><stop offset="0" style="stop-color:#adbbca;stop-opacity:.7027"/><stop offset="1" style="stop-color:#e4e8e9;stop-opacity:0"/></linearGradient><path d="M12,13.6l12,8.5L12,29V13.6z" class="st33"/><linearGradient id="SVGID_34_" x1="-886.15" x2="-886.15" y1="389.219" y2="388.219" gradientTransform="matrix(-12 0 0 -22.3274 -10627.7998 8696.9385)" gradientUnits="userSpaceOnUse"><stop offset="0" style="stop-color:#7692ae"/><stop offset="1" style="stop-color:#93b0ce"/></linearGradient><path d="M12,13.6L0,6.7v15.4L12,29V13.6z" class="st34"/><linearGradient id="SVGID_35_" x1="-886.15" x2="-886.15" y1="365.518" y2="364.518" gradientTransform="matrix(-12 0 0 -15.3982 -10627.7998 5641.9233)" gradientUnits="userSpaceOnUse"><stop offset="0" style="stop-color:#7692ae"/><stop offset="1" style="stop-color:#93b0ce"/></linearGradient><path d="M12,13.6L0,22.1L12,29V13.6z" class="st35"/></g></g><g><g class="st1" transform="translate(49)"><linearGradient id="SVGID_36_" x1="-896.875" x2="-896.875" y1="409.338" y2="408.338" gradientTransform="matrix(24 0 0 -29 21537 11870.8047)" gradientUnits="userSpaceOnUse"><stop offset="0" style="stop-color:#d0deea"/><stop offset="1" style="stop-color:#dae1e8"/></linearGradient><path d="M0,6.7L12,0l12,6.7v15.4L12,29L0,22.1V6.7z" class="st36"/><linearGradient id="SVGID_37_" x1="-864.25" x2="-864.25" y1="397.219" y2="396.219" gradientTransform="matrix(12 0 0 -22.3274 10389 8875.5586)" gradientUnits="userSpaceOnUse"><stop offset="0" style="stop-color:#bdc2c8"/><stop offset="1" style="stop-color:#dcedef"/></linearGradient><path d="M12,13.6l12-6.9v15.4L12,29V13.6z" class="st37"/><linearGradient id="SVGID_38_" x1="-864.25" x2="-864.25" y1="397.219" y2="396.219" gradientTransform="matrix(12 0 0 -22.3274 10389 8875.5586)" gradientUnits="userSpaceOnUse"><stop offset="0" style="stop-color:#bdc2c8"/><stop offset="1" style="stop-color:#dcedef"/></linearGradient><path d="M12,13.6l12-6.9v15.4L12,29V13.6z" class="st38"/><linearGradient id="SVGID_39_" x1="-864.25" x2="-864.25" y1="373.518" y2="372.518" gradientTransform="matrix(12 0 0 -15.3982 10389 5765.1089)" gradientUnits="userSpaceOnUse"><stop offset="0" style="stop-color:#adbbca;stop-opacity:.7027"/><stop offset="1" style="stop-color:#e4e8e9;stop-opacity:0"/></linearGradient><path d="M12,13.6l12,8.5L12,29V13.6z" class="st39"/><linearGradient id="SVGID_40_" x1="-994.75" x2="-994.75" y1="397.219" y2="396.219" gradientTransform="matrix(-12 0 0 -22.3274 -11931 8875.5586)" gradientUnits="userSpaceOnUse"><stop offset="0" style="stop-color:#7692ae"/><stop offset="1" style="stop-color:#93b0ce"/></linearGradient><path d="M12,13.6L0,6.7v15.4L12,29V13.6z" class="st40"/><linearGradient id="SVGID_41_" x1="-994.75" x2="-994.75" y1="373.518" y2="372.518" gradientTransform="matrix(-12 0 0 -15.3982 -11931 5765.1089)" gradientUnits="userSpaceOnUse"><stop offset="0" style="stop-color:#7692ae"/><stop offset="1" style="stop-color:#93b0ce"/></linearGradient><path d="M12,13.6L0,22.1L12,29V13.6z" class="st41"/></g><path d="M0,6.7L12,0l12,6.7v15.4L12,29L0,22.1V6.7z" class="st42" transform="translate(49)"/></g></g></svg>